<?xml version="1.0" encoding="UTF-8"?>
<!DOCTYPE svg PUBLIC "-//W3C//DTD SVG 1.1//EN" "http://www.w3.org/Graphics/SVG/1.1/DTD/svg11.dtd">
<svg version="1.1" xmlns="http://www.w3.org/2000/svg" xmlns:xlink="http://www.w3.org/1999/xlink" x="0" y="0" width="46" height="46" viewBox="0, 0, 46, 46">
  <g id="Google-Button">
    <g id="button-bg" display="none">
      <path d="M-6.5,-8.5 L29.5,-8.5 C30.605,-8.5 31.5,-7.605 31.5,-6.5 L31.5,29.5 C31.5,30.605 30.605,31.5 29.5,31.5 L-6.5,31.5 C-7.605,31.5 -8.5,30.605 -8.5,29.5 L-8.5,-6.5 C-8.5,-7.605 -7.605,-8.5 -6.5,-8.5 z" fill="#FFFFFF" id="path-2"/>
    </g>
    <g id="logo_googleg_48dp">
      <path d="M41.96,23.449 C41.96,22.048 41.834,20.702 41.601,19.409 L23,19.409 L23,27.049 L33.629,27.049 C33.171,29.517 31.78,31.609 29.688,33.01 L29.688,37.965 L36.071,37.965 C39.805,34.527 41.96,29.464 41.96,23.449 L41.96,23.449 z" fill="#4285F4" id="Shape"/>
      <path d="M23,42.75 C28.333,42.75 32.803,40.981 36.071,37.965 L29.688,33.01 C27.92,34.195 25.657,34.895 23,34.895 C17.856,34.895 13.502,31.421 11.949,26.753 L5.351,26.753 L5.351,31.87 C8.6,38.324 15.28,42.75 23,42.75 L23,42.75 z" fill="#34A853" id="Shape"/>
      <path d="M11.949,26.753 C11.554,25.567 11.33,24.302 11.33,23 C11.33,21.698 11.554,20.433 11.949,19.247 L11.949,14.13 L5.351,14.13 C4.013,16.797 3.25,19.813 3.25,23 C3.25,26.187 4.013,29.203 5.351,31.87 L11.949,26.753 L11.949,26.753 z" fill="#FBBC05" id="Shape"/>
      <path d="M23,11.105 C25.9,11.105 28.503,12.102 30.55,14.059 L36.215,8.394 C32.794,5.207 28.324,3.25 23,3.25 C15.28,3.25 8.6,7.676 5.351,14.13 L11.949,19.247 C13.502,14.579 17.856,11.105 23,11.105 L23,11.105 z" fill="#EA4335" id="Shape"/>
    </g>
  </g>
  <g id="Layer_2"/>
  <g id="Layer_3"/>
</svg>
